<svg width="252" height="40" viewBox="0 0 252 40" fill="none" xmlns="http://www.w3.org/2000/svg">
<path d="M24 32H0V8H24V32ZM14.3154 14.8037C13.9796 14.8735 13.727 15.1413 13.6689 15.4697L13.6562 15.6143C13.6561 15.8682 13.5055 16.3692 13.123 17.1152C12.8866 17.5765 12.5837 18.0824 12.2422 18.6143C12.2372 18.6043 12.2317 18.5943 12.2266 18.584C11.9748 18.0768 11.5415 17.1388 10.7422 15.2861C10.5867 14.9257 10.1989 14.7243 9.81445 14.8037C9.47843 14.8733 9.22509 15.1412 9.16699 15.4697L9.1543 15.6143C9.15412 15.8693 9.00336 16.3712 8.62305 17.1172C8.26138 17.8265 7.75109 18.6465 7.16992 19.4941C6.00869 21.1877 4.60903 22.9291 3.67676 24.0117L4.93066 25.0918C5.89088 23.9768 7.33084 22.1871 8.53516 20.4307C9.12894 19.5646 9.67537 18.6891 10.0811 17.8984C10.3799 18.5638 10.5901 19.0101 10.7441 19.3203C11.0202 19.8764 11.1374 20.0361 11.2002 20.1445C10.1389 21.6216 8.96564 23.067 8.14844 24.0107L8.77441 24.5518L9.40039 25.0938C10.366 23.9786 11.8134 22.1882 13.0244 20.4316C13.6291 19.5545 14.1863 18.6688 14.5957 17.8701C14.6052 17.8515 14.6136 17.8321 14.623 17.8135C15.3448 19.1992 16.1983 20.6074 17.0391 21.7568C17.6489 22.5906 18.2798 23.3295 18.8721 23.8242C19.1661 24.0697 19.4918 24.29 19.834 24.416C20.1818 24.544 20.6326 24.6017 21.0693 24.3779L20.6914 23.6416L20.3145 22.9053C20.428 22.8472 20.4918 22.8937 20.4062 22.8623C20.3143 22.8284 20.156 22.7394 19.9336 22.5537C19.4926 22.1855 18.954 21.5708 18.375 20.7793C17.3683 19.4029 16.3238 17.6092 15.5547 15.9746L15.2432 15.2852C15.0871 14.9254 14.6994 14.7241 14.3154 14.8037Z" fill="#A21A08"/>
<path d="M34.645 7.92477H39.0533L46.7179 26.6395H47L54.6646 7.92477H59.0729V32H55.6168V14.5784H55.3934L48.2931 31.9647H45.4248L38.3245 14.5666H38.1011V32H34.645V7.92477ZM69.6981 32H65.8423L74.5061 7.92477H78.7028L87.3666 32H83.5108L76.7043 12.2978H76.5163L69.6981 32ZM70.3446 22.5721H82.8525V25.6285H70.3446V22.5721ZM113.585 7.92477V32H110.247L98.0094 14.3433H97.7861V32H94.1536V7.92477H97.5157L109.765 25.605H109.988V7.92477H113.585ZM125.827 7.92477V32H122.195V7.92477H125.827ZM134.427 32V7.92477H149.357V11.0517H138.06V18.3871H148.287V21.5024H138.06V32H134.427ZM157.134 32V7.92477H172.228V11.0517H160.767V18.3871H171.441V21.5024H160.767V28.873H172.369V32H157.134ZM193.522 14.2492C193.396 13.1364 192.879 12.2743 191.97 11.663C191.061 11.0439 189.917 10.7343 188.537 10.7343C187.55 10.7343 186.696 10.8911 185.975 11.2045C185.254 11.5102 184.693 11.9334 184.293 12.4741C183.902 13.0071 183.706 13.6144 183.706 14.2962C183.706 14.8683 183.839 15.3621 184.105 15.7774C184.38 16.1928 184.736 16.5415 185.175 16.8237C185.622 17.098 186.1 17.3292 186.609 17.5172C187.119 17.6975 187.609 17.8464 188.079 17.964L190.43 18.5752C191.198 18.7633 191.985 19.018 192.793 19.3393C193.6 19.6607 194.348 20.0839 195.038 20.6089C195.728 21.134 196.284 21.7845 196.707 22.5603C197.138 23.3362 197.354 24.2649 197.354 25.3464C197.354 26.71 197.001 27.9208 196.296 28.9788C195.598 30.0368 194.583 30.8715 193.251 31.4828C191.927 32.094 190.324 32.3997 188.443 32.3997C186.641 32.3997 185.081 32.1136 183.764 31.5415C182.448 30.9694 181.417 30.1583 180.673 29.1082C179.928 28.0502 179.517 26.7962 179.438 25.3464H183.083C183.153 26.2163 183.435 26.9412 183.929 27.5212C184.431 28.0933 185.069 28.5204 185.845 28.8025C186.629 29.0768 187.487 29.2139 188.42 29.2139C189.446 29.2139 190.359 29.0533 191.159 28.732C191.966 28.4028 192.601 27.9483 193.063 27.3683C193.525 26.7806 193.757 26.0948 193.757 25.3111C193.757 24.598 193.553 24.0141 193.145 23.5596C192.746 23.105 192.201 22.7288 191.511 22.431C190.83 22.1332 190.058 21.8707 189.196 21.6434L186.351 20.8676C184.423 20.3425 182.895 19.5705 181.766 18.5517C180.645 17.5329 180.085 16.185 180.085 14.5078C180.085 13.1207 180.461 11.9099 181.214 10.8754C181.966 9.84091 182.985 9.03762 184.27 8.46552C185.555 7.88558 187.005 7.59561 188.62 7.59561C190.25 7.59561 191.688 7.88166 192.934 8.45376C194.188 9.02586 195.175 9.81348 195.896 10.8166C196.617 11.8119 196.993 12.9561 197.025 14.2492H193.522ZM203.818 11.0517V7.92477H222.45V11.0517H214.938V32H211.318V11.0517H203.818ZM249.756 19.9624C249.756 22.5329 249.286 24.7429 248.346 26.5925C247.405 28.4342 246.116 29.8527 244.478 30.848C242.848 31.8354 240.995 32.3292 238.918 32.3292C236.833 32.3292 234.972 31.8354 233.334 30.848C231.704 29.8527 230.418 28.4303 229.478 26.5807C228.538 24.7312 228.067 22.5251 228.067 19.9624C228.067 17.3918 228.538 15.1857 229.478 13.344C230.418 11.4945 231.704 10.076 233.334 9.08856C234.972 8.09326 236.833 7.59561 238.918 7.59561C240.995 7.59561 242.848 8.09326 244.478 9.08856C246.116 10.076 247.405 11.4945 248.346 13.344C249.286 15.1857 249.756 17.3918 249.756 19.9624ZM246.159 19.9624C246.159 18.0031 245.842 16.3534 245.207 15.0133C244.58 13.6654 243.718 12.6466 242.621 11.9569C241.531 11.2594 240.297 10.9107 238.918 10.9107C237.531 10.9107 236.292 11.2594 235.203 11.9569C234.114 12.6466 233.252 13.6654 232.617 15.0133C231.99 16.3534 231.676 18.0031 231.676 19.9624C231.676 21.9216 231.99 23.5752 232.617 24.9232C233.252 26.2633 234.114 27.2821 235.203 27.9796C236.292 28.6693 237.531 29.0141 238.918 29.0141C240.297 29.0141 241.531 28.6693 242.621 27.9796C243.718 27.2821 244.58 26.2633 245.207 24.9232C245.842 23.5752 246.159 21.9216 246.159 19.9624Z" fill="#A21A08"/>
</svg>
